<?xml version="1.0" encoding="utf-8"?>
<!-- Generator: Adobe Illustrator 22.0.0, SVG Export Plug-In . SVG Version: 6.00 Build 0)  -->
<svg version="1.1" xmlns="http://www.w3.org/2000/svg" xmlns:xlink="http://www.w3.org/1999/xlink" x="0px" y="0px"
	 viewBox="0 0 3000 3000" style="enable-background:new 0 0 3000 3000;" xml:space="preserve">
<style type="text/css">
	.st0{stroke:#000000;stroke-miterlimit:10;}
	.st1{fill:#FFFFFF;}
	.st2{fill:url(#SVGID_1_);}
	.st3{fill:url(#SVGID_2_);}
	.st4{fill:url(#SVGID_3_);}
	.st5{fill:#00FF00;}
	.st6{fill:url(#SVGID_4_);}
	.st7{fill:none;}
	.st8{fill:url(#SVGID_5_);}
	.st9{fill:url(#SVGID_6_);}
	.st10{fill:url(#SVGID_7_);}
	.st11{fill:url(#SVGID_8_);}
	.st12{fill:url(#SVGID_9_);}
	.st13{fill:url(#SVGID_10_);}
</style>
<g id="Layer_5">
	<path class="st0" d="M2408,2932H584c-262.9,0-476-213.1-476-476V536c0-262.9,213.1-476,476-476h1824c262.9,0,476,213.1,476,476
		v1920C2884,2718.9,2670.9,2932,2408,2932z"/>
</g>
<g id="Layer_1">
	<g id="Layer_1_1_">
		<path d="M775,1402v7.1c-0.1,0.5-0.1,0.9-0.1,1.4v1.3c0,0.4-0.1,0.8-0.1,1.2c0,0.6-0.1,1.3-0.1,1.9c-0.1,1.1-0.2,2.3-0.3,3.5
			c-0.2,1.6-0.3,3.1-0.5,4.7c0,0.2-0.1,0.5-0.1,0.7c0,0.3,0,0.7-0.1,1v0c0,0.3-0.1,0.6-0.1,1c-0.1,0.7-0.2,1.5-0.3,2.3
			c-0.1,0.4-0.1,0.9-0.2,1.3c-0.1,0.6-0.2,1.3-0.3,1.9c-0.1,0.6-0.2,1.3-0.3,1.9c0,0.5-0.1,0.9-0.2,1.3c0,0.1,0,0.1,0,0.2
			c0,0.4-0.1,0.9-0.2,1.3c0,0.4-0.1,0.9-0.2,1.3l-0.2,1.1c0,0.1,0,0.1,0,0.2c0,0.2-0.1,0.3-0.1,0.5c-0.2,0.8-0.3,1.5-0.5,2.3
			c-0.2,0.7-0.3,1.4-0.5,2.1c-0.1,0.7-0.3,1.5-0.5,2.2c-0.1,0.5-0.3,1.1-0.4,1.6c0,0.3-0.1,0.6-0.2,0.9c0,0.1,0,0.2,0,0.2
			c0,0.2-0.1,0.3-0.1,0.5c-0.3,1.1-0.6,2.3-0.9,3.4c-0.1,0.5-0.2,1.1-0.4,1.6c0,0.1-0.1,0.3-0.1,0.4c-0.1,0-0.1,0.1-0.1,0.2
			c-0.1,0.2-0.1,0.4-0.2,0.6c-0.2,0.5-0.3,1.1-0.5,1.6c-0.1,0.5-0.2,0.9-0.4,1.4c-0.4,1-0.7,1.9-1,2.9c-0.2,0.6-0.4,1.3-0.6,1.9
			c0,0.1-0.1,0.3-0.1,0.4c-0.2,0.6-0.5,1.2-0.7,1.9c-0.1,0.3-0.2,0.6-0.3,0.9c-0.1,0.4-0.3,0.7-0.4,1.1v0.1
			c-0.4,1.1-0.8,2.3-1.3,3.4c-0.1,0.2-0.2,0.5-0.3,0.7c0,0.2-0.1,0.4-0.2,0.6c-0.7,2-1.5,3.9-2.4,5.8c-0.2,0.5-0.4,1.1-0.7,1.6
			c-0.4,1-0.9,1.9-1.3,2.8c-0.1,0.2-0.2,0.4-0.3,0.6c0,0.1-0.1,0.2-0.1,0.3s-0.1,0.1-0.1,0.2c-0.5,1.1-1,2.2-1.6,3.3
			c-0.2,0.4-0.5,0.9-0.7,1.3c-0.1,0.2-0.2,0.4-0.3,0.6c-0.1,0.2-0.2,0.4-0.3,0.6c-0.1,0.3-0.3,0.5-0.4,0.8c-0.1,0.2-0.2,0.4-0.3,0.6
			c-0.6,1.1-1.2,2.2-1.8,3.3c-0.3,0.6-0.7,1.3-1.1,1.9c-0.3,0.6-0.7,1.3-1.1,1.9c-0.4,0.6-0.8,1.3-1.2,1.9c-0.4,0.6-0.8,1.3-1.2,1.9
			s-0.8,1.3-1.2,1.9c-0.3,0.4-0.5,0.8-0.8,1.2s-0.5,0.8-0.8,1.2c-0.2,0.4-0.5,0.8-0.8,1.2c-0.1,0.3-0.3,0.5-0.5,0.8
			c-0.4,0.6-0.9,1.2-1.3,1.8c-0.2,0.3-0.3,0.5-0.5,0.7c-0.3,0.5-0.6,0.9-0.9,1.3c-0.2,0.3-0.4,0.7-0.7,1c-0.1,0.1-0.1,0.2-0.2,0.3
			c-0.3,0.5-0.7,1-1.1,1.5c-0.2,0.2-0.3,0.4-0.5,0.6c-0.3,0.3-0.5,0.6-0.7,0.9c0,0.1,0,0.1,0,0.1c-0.1,0-0.1,0.1-0.2,0.2
			c-1.1,1.5-2.3,2.9-3.5,4.4c-0.2,0.2-0.3,0.4-0.5,0.6c-0.1,0.1-0.1,0.1-0.2,0.2l-0.1,0.1c-2.3,2.8-4.8,5.6-7.3,8.3
			c-0.1,0.1-0.3,0.3-0.4,0.4c-0.8,0.8-1.6,1.7-2.5,2.6l-2.4,2.4c-0.4,0.4-0.7,0.8-1.1,1.1c-0.4,0.5-0.8,0.9-1.3,1.3
			c-0.8,0.7-1.6,1.5-2.4,2.2c-0.5,0.5-1.1,1.1-1.7,1.6c-1.3,1.1-2.5,2.2-3.8,3.3c-0.1,0.1-0.2,0.1-0.3,0.2c-0.1,0.1-0.1,0.1-0.2,0.2
			c-0.6,0.4-1.1,0.9-1.6,1.3c-0.5,0.4-1,0.9-1.6,1.3c-0.2,0.1-0.3,0.2-0.4,0.3c-0.6,0.5-1.1,1-1.7,1.4c-0.1,0-0.2,0.1-0.3,0.2
			c-0.7,0.5-1.4,1.1-2.1,1.6c-0.4,0.3-0.8,0.6-1.2,0.9c-0.3,0.2-0.6,0.4-0.9,0.6l-0.9,0.6c-0.3,0.2-0.5,0.4-0.8,0.6
			c-0.4,0.3-0.7,0.5-1.1,0.8c-0.4,0.3-0.8,0.6-1.2,0.9c-0.3,0.1-0.5,0.3-0.7,0.4c-1,0.7-1.9,1.3-2.8,1.9c-0.2,0.2-0.5,0.3-0.7,0.5
			c-0.2,0.1-0.3,0.2-0.5,0.3c-0.7,0.5-1.4,1-2.1,1.4c-0.3,0.2-0.6,0.4-0.9,0.6l-1,0.6c-0.1,0.1-0.2,0.1-0.3,0.2
			c-0.1,0.1-0.3,0.2-0.4,0.3c-0.3,0.2-0.6,0.3-0.9,0.5c-0.6,0.3-1.1,0.6-1.6,0.9c-0.5,0.3-0.9,0.5-1.4,0.8c-0.1,0.1-0.2,0.1-0.3,0.2
			c-0.4,0.3-0.9,0.5-1.3,0.8c-0.4,0.3-0.8,0.5-1.3,0.8c-0.7,0.4-1.3,0.7-2,1.1c-0.7,0.4-1.3,0.8-2,1.1c-0.7,0.4-1.3,0.8-2,1.1
			c-0.7,0.3-1.3,0.7-2,1c-0.6,0.3-1.1,0.5-1.7,0.8c-1.1,0.5-2.1,1-3.2,1.5c-0.1,0.1-0.2,0.1-0.3,0.2c-0.2,0.1-0.3,0.1-0.5,0.2
			c-0.5,0.3-1,0.5-1.5,0.7c-0.3,0.2-0.7,0.3-1,0.5l-2.1,0.9c-0.1,0-0.1,0-0.1,0l-1.5,0.6c-0.2,0.1-0.5,0.2-0.7,0.3
			c-0.7,0.3-1.4,0.5-2.1,0.8c-0.2,0.1-0.5,0.2-0.8,0.3c-0.2,0-0.3,0-0.4,0.1c-0.2,0.1-0.3,0.1-0.5,0.2c-0.4,0.2-0.8,0.3-1.2,0.5
			c-1.3,0.5-2.7,1-4,1.5c-0.6,0.2-1.2,0.4-1.8,0.6c-0.7,0.2-1.5,0.5-2.2,0.7c-0.7,0.2-1.5,0.5-2.2,0.7c-0.7,0.3-1.5,0.4-2.2,0.7
			c-0.7,0.3-1.5,0.5-2.2,0.7c-0.7,0.3-1.5,0.5-2.3,0.7c-0.2,0.1-0.5,0.1-0.7,0.2c-0.3,0.1-0.5,0.1-0.7,0.2h-0.1
			c-0.1,0-0.3,0.1-0.4,0.1c-0.8,0.2-1.7,0.4-2.5,0.6c-0.6,0.1-1.2,0.3-1.8,0.4c-0.9,0.2-1.9,0.4-2.8,0.6c-0.2,0.1-0.5,0.2-0.7,0.2
			c-0.7,0.1-1.4,0.3-2.1,0.4c-1.4,0.3-2.7,0.6-4.1,0.8c-0.8,0.1-1.5,0.2-2.3,0.4c-0.8,0.2-1.5,0.3-2.3,0.4c-0.4,0.1-0.8,0.1-1.2,0.2
			c-0.4,0.1-0.8,0.2-1.2,0.2c-0.4,0.1-0.7,0.2-1.1,0.2c-0.1,0-0.1,0-0.1,0c-0.4,0.1-0.8,0.1-1.2,0.2c-0.9,0.1-1.7,0.2-2.6,0.3
			c-1.5,0.1-3,0.3-4.5,0.4c-1.6,0.2-3.2,0.3-4.8,0.4h-0.1c-0.3,0.1-0.7,0.1-1,0.1c-0.3,0.1-0.7,0.1-1,0.1H597
			c-0.3,0.1-0.7,0.1-1.1,0.1c-0.4,0.1-0.8,0.1-1.2,0.1c-0.2,0-0.4,0-0.6,0.1c-0.6,0-1.2,0-1.8,0c0.6,0,1.2,0,1.8,0
			c2.8-0.1,5.6-0.2,8.4-0.3c-1,0.1-2,0.2-3,0.3h-0.1c-0.3,0-0.7,0-1,0.1c-0.2,0-0.5,0-0.8,0c-1.8,0.1-3.7,0.1-5.5,0.2
			c-1.6,0.1-3.2,0.1-4.8,0.1c-1.6,0-3.2-0.1-4.8-0.1c-0.8-0.1-1.6-0.1-2.4-0.1c-0.4-0.1-0.8-0.1-1.2-0.1c-0.3-0.1-0.7-0.1-1.1-0.1
			h-0.3c-0.3-0.1-0.7-0.1-1-0.1c-0.3-0.1-0.7-0.1-1-0.1h-0.1c-1.6-0.1-3.2-0.3-4.8-0.4c-1.5-0.1-3-0.2-4.5-0.4
			c-0.9-0.1-1.7-0.2-2.6-0.3c-0.4-0.1-0.8-0.1-1.2-0.2c-0.1,0-0.1,0-0.1,0c-0.4-0.1-0.7-0.1-1.1-0.2c-0.4-0.1-0.8-0.1-1.2-0.2
			c-0.4-0.1-0.8-0.1-1.2-0.2c-0.8-0.1-1.5-0.3-2.3-0.4c-0.8-0.1-1.5-0.3-2.3-0.4c-1.4-0.3-2.7-0.5-4.1-0.8c-0.7-0.1-1.4-0.2-2.1-0.4
			c-0.2-0.1-0.5-0.1-0.7-0.2c-0.9-0.2-1.9-0.4-2.8-0.6c-0.6-0.1-1.2-0.3-1.8-0.4c-0.8-0.2-1.7-0.4-2.5-0.6c-0.1,0-0.3-0.1-0.4-0.1
			h-0.1c-0.3-0.1-0.5-0.1-0.7-0.2c-0.2-0.1-0.5-0.1-0.7-0.2c-0.7-0.3-1.5-0.5-2.3-0.7c-0.7-0.3-1.5-0.4-2.2-0.7s-1.5-0.5-2.2-0.7
			c-0.7-0.2-1.5-0.5-2.2-0.7c-0.7-0.2-1.5-0.4-2.2-0.7c-0.6-0.2-1.2-0.4-1.8-0.6c-1.3-0.5-2.7-1-4-1.5c-0.4-0.2-0.8-0.3-1.2-0.5
			c-0.2-0.1-0.3-0.1-0.5-0.2c-0.1,0-0.3-0.1-0.4-0.1c-0.2-0.1-0.5-0.2-0.8-0.3c-0.7-0.2-1.4-0.5-2.1-0.8c-0.2-0.1-0.5-0.2-0.7-0.3
			c-0.5-0.2-1-0.4-1.5-0.6c-0.1,0-0.1,0-0.1,0c-0.7-0.3-1.4-0.6-2.1-0.9c-0.3-0.2-0.7-0.3-1-0.5c-0.5-0.3-1-0.5-1.5-0.7
			c-0.2-0.1-0.3-0.1-0.5-0.2c-0.1-0.1-0.2-0.2-0.3-0.2c-1.1-0.5-2.1-1-3.2-1.5c-0.6-0.2-1.1-0.5-1.7-0.8c-0.7-0.3-1.3-0.7-2-1
			c-0.7-0.4-1.3-0.7-2-1.1s-1.3-0.7-2-1.1s-1.3-0.7-2-1.1c-0.4-0.3-0.9-0.5-1.3-0.8c-0.4-0.3-0.9-0.5-1.3-0.8
			c-0.1-0.1-0.2-0.1-0.3-0.2c-0.5-0.3-1-0.5-1.4-0.8c-0.6-0.3-1.1-0.6-1.6-0.9c-0.3-0.2-0.6-0.3-0.9-0.5c-0.1-0.1-0.2-0.2-0.4-0.3
			c-0.1-0.1-0.2-0.1-0.3-0.2l-1-0.6c-0.3-0.2-0.6-0.4-0.9-0.6c-0.7-0.5-1.4-0.9-2.1-1.4c-0.2-0.1-0.4-0.2-0.5-0.3
			c-0.2-0.2-0.5-0.3-0.7-0.5c-1-0.6-1.9-1.3-2.8-1.9c-0.3-0.1-0.5-0.3-0.7-0.4c-0.4-0.3-0.8-0.6-1.2-0.9c-0.4-0.3-0.7-0.5-1.1-0.8
			c-0.3-0.2-0.5-0.4-0.8-0.6c-0.3-0.2-0.6-0.4-0.9-0.6c-0.3-0.2-0.6-0.4-0.9-0.6c-0.4-0.3-0.8-0.6-1.2-0.9c-0.7-0.5-1.4-1.1-2.1-1.6
			c-0.1-0.1-0.2-0.1-0.3-0.2c-0.6-0.5-1.2-0.9-1.7-1.4c-0.2-0.1-0.3-0.2-0.4-0.3c-0.5-0.4-1.1-0.8-1.6-1.3c-0.1-0.1-0.3-0.2-0.4-0.3
			c-0.2-0.1-0.3-0.3-0.5-0.4c-0.2-0.2-0.5-0.4-0.7-0.6c-0.1-0.1-0.1-0.1-0.2-0.2c0,0-0.1,0-0.1,0c0,0,0,0,0,0c0,0,0,0,0-0.1
			c-1.3-1-2.5-2.2-3.8-3.3c0,0,0,0,0,0c-0.2-0.2-0.4-0.4-0.6-0.5c0,0,0,0,0,0l-0.3-0.3c-0.7-0.6-1.3-1.2-2-1.8
			c-0.1-0.1-0.1-0.1-0.2-0.2c-0.2-0.2-0.5-0.4-0.7-0.6l-0.3-0.3c-0.7-0.7-1.4-1.4-2.2-2.1c-0.1-0.1-0.2-0.2-0.3-0.3
			c-0.6-0.7-1.3-1.4-2-2.1l-0.3-0.3c0,0-0.1-0.1-0.1-0.1c-0.4-0.4-0.8-0.8-1.1-1.1c-0.1-0.1-0.3-0.3-0.4-0.4
			c-0.1-0.1-0.2-0.1-0.2-0.2c-0.1-0.1-0.2-0.2-0.3-0.3l-0.8-0.8c-0.3-0.4-0.6-0.7-0.9-1c-0.4-0.4-0.7-0.8-1-1.1
			c-0.9-1-1.7-1.9-2.6-2.9c-0.4-0.4-0.7-0.8-1.1-1.3c-0.5-0.6-1-1.1-1.5-1.7c-0.1-0.1-0.2-0.3-0.4-0.4c-0.1-0.1-0.2-0.3-0.3-0.4
			c-0.1-0.1-0.1-0.2-0.2-0.3c-0.1-0.2-0.3-0.4-0.4-0.6c0,0,0,0,0,0c-0.1-0.1-0.2-0.2-0.2-0.3c0-0.1-0.1-0.1-0.1-0.2
			c-0.6-0.7-1.1-1.4-1.7-2.1c-0.4-0.5-0.8-1-1.1-1.4c-0.1-0.2-0.2-0.3-0.3-0.4c-0.3-0.4-0.5-0.7-0.8-1c-0.2-0.2-0.4-0.4-0.5-0.7
			c-0.1-0.1-0.2-0.3-0.3-0.4c-0.1-0.1-0.2-0.3-0.2-0.4c-0.6-0.8-1.2-1.7-1.8-2.6c-0.2-0.2-0.3-0.4-0.5-0.7c-0.4-0.6-0.9-1.2-1.3-1.8
			c-0.2-0.3-0.4-0.5-0.5-0.8c-0.3-0.4-0.6-0.8-0.8-1.2c0-0.1-0.1-0.1-0.1-0.1c-0.5-0.7-1-1.4-1.4-2.2c-0.4-0.6-0.8-1.3-1.2-1.9
			c-0.4-0.6-0.8-1.3-1.2-1.9c-0.4-0.6-0.8-1.3-1.2-1.9c-0.4-0.6-0.8-1.3-1.1-1.9c-0.4-0.6-0.8-1.3-1.1-1.9c-0.6-1.1-1.2-2.2-1.8-3.3
			c-0.1-0.2-0.2-0.4-0.3-0.6c-0.1-0.3-0.3-0.5-0.4-0.8c-0.1-0.2-0.2-0.4-0.3-0.6c-0.1-0.2-0.2-0.4-0.3-0.6c-0.2-0.4-0.5-0.9-0.7-1.3
			c-0.3-0.5-0.5-1-0.7-1.5c-0.1-0.2-0.2-0.3-0.3-0.5c-0.2-0.4-0.4-0.9-0.6-1.3c0-0.1-0.1-0.1-0.1-0.2s-0.1-0.2-0.1-0.3
			c-0.1-0.2-0.2-0.3-0.2-0.5c-0.5-1-0.9-1.9-1.3-2.9c-0.3-0.5-0.5-1.1-0.7-1.6c-0.9-1.9-1.7-3.8-2.4-5.8c-0.1-0.2-0.2-0.4-0.2-0.6
			c-0.1-0.2-0.2-0.5-0.3-0.7c-0.5-1.1-0.9-2.3-1.3-3.4v-0.1c-0.1-0.2-0.1-0.4-0.2-0.5l-0.2-0.6c-0.1-0.3-0.2-0.6-0.3-0.9
			c-0.2-0.7-0.5-1.3-0.7-1.9c0-0.1-0.1-0.3-0.1-0.4c-0.2-0.6-0.4-1.3-0.6-1.9c-0.3-1-0.6-1.9-1-2.9c-0.2-0.5-0.3-0.9-0.4-1.4
			c-0.2-0.5-0.3-1.1-0.5-1.6c-0.1-0.3-0.2-0.5-0.2-0.8c0-0.1-0.1-0.3-0.1-0.4c-0.2-0.5-0.3-1.1-0.4-1.6c-0.3-1.1-0.6-2.3-0.9-3.4
			c0-0.2-0.1-0.3-0.1-0.5c0,0,0-0.1,0-0.2c-0.1-0.3-0.2-0.6-0.2-0.9c-0.1-0.5-0.3-1.1-0.4-1.6c-0.2-0.7-0.3-1.5-0.5-2.2
			c-0.2-0.7-0.3-1.4-0.5-2.1c-0.2-0.8-0.3-1.5-0.5-2.3c0-0.2-0.1-0.3-0.1-0.5c0-0.1,0-0.1,0-0.2l-0.2-1.1c-0.1-0.4-0.2-0.9-0.2-1.3
			c-0.2-0.9-0.3-1.8-0.5-2.8c-0.1-0.6-0.2-1.3-0.3-1.9s-0.2-1.3-0.3-1.9c-0.1-0.4-0.1-0.9-0.2-1.3c-0.1-0.8-0.2-1.6-0.3-2.3
			c-0.1-0.7-0.2-1.3-0.2-2c0-0.2-0.1-0.5-0.1-0.7c-0.2-1.6-0.3-3.1-0.5-4.7c-0.1-1.2-0.2-2.4-0.3-3.5c0-0.6-0.1-1.3-0.1-1.9
			c0-0.4-0.1-0.8-0.1-1.2v-1.3c0-0.5,0-0.9-0.1-1.4v-7.1c0-103.6,83.9-187.5,187.5-187.5c102.8,0,185.9,82.3,187.2,184.8
			C775,1400.7,775,1401.4,775,1402z"/>
		<path class="st1" d="M452.8,1533.3c0.7,0.7,1.4,1.4,2,2.1C454.1,1534.7,453.4,1534,452.8,1533.3z"/>
		<path class="st1" d="M460.5,1540.7l0.3,0.3c-0.7-0.6-1.3-1.2-2-1.8c-0.2-0.2-0.3-0.3-0.5-0.5c0.1,0.1,0.1,0.1,0.2,0.2
			C459.2,1539.5,459.8,1540.1,460.5,1540.7z"/>
		<path class="st1" d="M465.3,1544.9C465.3,1544.9,465.3,1544.9,465.3,1544.9c-1.2-1-2.4-2-3.5-3c-0.1-0.1-0.2-0.2-0.3-0.3
			c0,0,0,0,0,0C462.8,1542.7,464,1543.9,465.3,1544.9z"/>
		<path class="st1" d="M465.7,1545.2c0.2,0.2,0.5,0.4,0.7,0.6c-0.1-0.1-0.3-0.2-0.4-0.3c-0.1-0.1-0.1-0.1-0.2-0.2
			c-0.1,0-0.1-0.1-0.2-0.1c-0.1-0.1-0.2-0.1-0.2-0.2c0,0,0.1,0,0.1,0C465.6,1545.1,465.6,1545.1,465.7,1545.2z"/>
		<path class="st1" d="M592.3,1589.9c0.6,0,1.2,0,1.8,0C593.5,1589.9,592.9,1589.9,592.3,1589.9z"/>
		<path class="st1" d="M592.1,1590.1c1.8,0,3.7-0.1,5.5-0.2c-0.1,0-0.1,0-0.2,0.1h-0.3c-0.4,0-0.8,0-1.1,0.1h-1.2
			c-0.8,0-1.6,0.1-2.4,0.1c-1.6,0-3.2,0.1-4.8,0.1c-1.6,0-3.2,0-4.8-0.1c-0.8,0-1.6,0-2.4-0.1h-1.2c-0.4,0-0.8,0-1.1-0.1h-0.3
			c-0.3,0-0.7,0-1-0.1c-0.3,0-0.7,0-1-0.1h-0.1c-1.6-0.1-3.2-0.2-4.8-0.4c-1.5-0.1-3-0.3-4.5-0.4c-0.9-0.1-1.7-0.2-2.6-0.3
			c-0.4-0.1-0.8-0.1-1.2-0.2c0,0,0,0-0.1,0c-0.4,0-0.7-0.1-1.1-0.2c-0.4,0-0.8-0.1-1.2-0.2c-0.4-0.1-0.8-0.1-1.2-0.2
			c-0.8-0.1-1.5-0.2-2.3-0.4s-1.5-0.3-2.3-0.4c-1.4-0.2-2.7-0.5-4.1-0.8c-0.7-0.1-1.4-0.3-2.1-0.4c-0.2,0-0.5-0.1-0.7-0.2
			c-0.9-0.2-1.9-0.4-2.8-0.6c-0.6-0.1-1.2-0.3-1.8-0.4c-0.8-0.2-1.7-0.4-2.5-0.6c-0.1,0-0.3-0.1-0.4-0.1h-0.1
			c-0.2-0.1-0.4-0.1-0.7-0.2c-1-0.3-2-0.6-3-0.8c-0.7-0.2-1.5-0.4-2.2-0.7c-0.7-0.3-1.5-0.4-2.2-0.7c-0.7-0.2-1.5-0.5-2.2-0.7
			c-0.7-0.2-1.5-0.5-2.2-0.7c-0.6-0.2-1.2-0.4-1.8-0.6c-1.3-0.5-2.7-1-4-1.5c-0.4-0.2-0.8-0.3-1.2-0.5c-0.2-0.1-0.3-0.1-0.5-0.2
			c-0.1-0.1-0.2-0.1-0.4-0.1c-0.3-0.1-0.6-0.2-0.8-0.3c-0.7-0.3-1.4-0.5-2.1-0.8c-0.2-0.1-0.5-0.2-0.7-0.3l-1.5-0.6c0,0,0,0-0.1,0
			c-0.7-0.3-1.4-0.6-2.1-0.9c-0.3-0.2-0.7-0.3-1-0.5c-0.5-0.2-1-0.4-1.5-0.7c-0.2-0.1-0.3-0.1-0.5-0.2c-0.1-0.1-0.2-0.1-0.3-0.2
			c-1.1-0.5-2.1-1-3.2-1.5c-0.6-0.3-1.1-0.5-1.7-0.8c-0.7-0.3-1.3-0.7-2-1s-1.3-0.7-2-1.1c-0.7-0.3-1.3-0.7-2-1.1
			c-0.7-0.4-1.3-0.7-2-1.1c-0.5-0.3-0.9-0.5-1.3-0.8c-0.4-0.3-0.9-0.5-1.3-0.8c-0.1-0.1-0.2-0.1-0.3-0.2c-0.5-0.3-0.9-0.5-1.4-0.8
			c-0.5-0.3-1-0.6-1.6-0.9c-0.3-0.2-0.6-0.3-0.9-0.5c-0.1-0.1-0.3-0.2-0.4-0.3c-0.1-0.1-0.2-0.1-0.3-0.2l-1-0.6
			c-0.3-0.2-0.6-0.4-0.9-0.6c-0.7-0.4-1.4-0.9-2.1-1.4c-0.2-0.1-0.3-0.2-0.5-0.3c-0.2-0.2-0.5-0.3-0.7-0.5c-0.9-0.6-1.8-1.2-2.8-1.9
			c-0.2-0.1-0.4-0.3-0.7-0.4c-0.4-0.3-0.8-0.6-1.2-0.9c-0.4-0.3-0.7-0.5-1.1-0.8c-0.3-0.2-0.5-0.4-0.8-0.6c-0.3-0.2-0.6-0.4-0.9-0.6
			c-0.3-0.2-0.6-0.4-0.9-0.6c-0.4-0.3-0.8-0.6-1.2-0.9c-0.7-0.5-1.4-1.1-2.1-1.6c-0.1-0.1-0.2-0.2-0.3-0.2c-0.6-0.4-1.1-0.9-1.7-1.4
			c-0.1-0.1-0.2-0.2-0.4-0.3c-0.6-0.4-1.1-0.9-1.6-1.3c-0.2-0.2-0.5-0.4-0.7-0.6c0.1,0.1,0.3,0.2,0.4,0.3c0.5,0.5,1.1,0.9,1.6,1.3
			c0.1,0.1,0.2,0.2,0.4,0.3c0.5,0.5,1.1,0.9,1.7,1.4c0.1,0.1,0.2,0.1,0.3,0.2c0.7,0.5,1.4,1.1,2.1,1.6c0.4,0.3,0.8,0.6,1.2,0.9
			c0.3,0.2,0.6,0.4,0.9,0.6c0.3,0.2,0.6,0.4,0.9,0.6c0.3,0.2,0.5,0.4,0.8,0.6c0.4,0.3,0.7,0.5,1.1,0.8c0.4,0.3,0.8,0.6,1.2,0.9
			c0.2,0.1,0.4,0.3,0.7,0.4c0.9,0.6,1.8,1.3,2.8,1.9c0.2,0.2,0.5,0.3,0.7,0.5c0.1,0.1,0.3,0.2,0.5,0.3c0.7,0.5,1.4,0.9,2.1,1.4
			c0.3,0.2,0.6,0.4,0.9,0.6l1,0.6c0.1,0.1,0.2,0.1,0.3,0.2c0.2,0.1,0.3,0.2,0.4,0.3c0.3,0.2,0.6,0.3,0.9,0.5c0.5,0.3,1,0.6,1.6,0.9
			c0.4,0.3,0.9,0.5,1.4,0.8c0.1,0.1,0.2,0.1,0.3,0.2c0.4,0.3,0.9,0.5,1.3,0.8c0.4,0.3,0.9,0.5,1.3,0.8c0.7,0.4,1.3,0.7,2,1.1
			s1.3,0.7,2,1.1s1.3,0.7,2,1.1c0.7,0.3,1.3,0.7,2,1c0.6,0.3,1.1,0.6,1.7,0.8c1.1,0.5,2.1,1,3.2,1.5c0.1,0,0.2,0.1,0.3,0.2
			c0.2,0.1,0.3,0.1,0.5,0.2c0.5,0.2,1,0.4,1.5,0.7c0.3,0.2,0.7,0.3,1,0.5c0.7,0.3,1.4,0.6,2.1,0.9c0,0,0,0,0.1,0
			c0.5,0.2,1,0.4,1.5,0.6c0.2,0.1,0.5,0.2,0.7,0.3c0.7,0.3,1.4,0.6,2.1,0.8c0.3,0.1,0.6,0.2,0.8,0.3c0.1,0,0.3,0.1,0.4,0.1
			c0.2,0.1,0.3,0.1,0.5,0.2c0.4,0.2,0.8,0.3,1.2,0.5c1.3,0.5,2.7,1,4,1.5c0.6,0.2,1.2,0.4,1.8,0.6c0.7,0.3,1.5,0.5,2.2,0.7
			c0.7,0.2,1.5,0.5,2.2,0.7c0.7,0.2,1.5,0.4,2.2,0.7s1.5,0.4,2.2,0.7c0.8,0.2,1.6,0.4,2.3,0.7c0.2,0.1,0.5,0.1,0.7,0.2
			c0.2,0.1,0.4,0.1,0.7,0.2h0.1c0.1,0,0.3,0.1,0.4,0.1c0.8,0.2,1.7,0.4,2.5,0.6c0.6,0.1,1.2,0.3,1.8,0.4c0.9,0.2,1.9,0.4,2.8,0.6
			c0.2,0.1,0.5,0.1,0.7,0.2c0.7,0.2,1.4,0.3,2.1,0.4c1.4,0.3,2.7,0.5,4.1,0.8c0.8,0.1,1.5,0.3,2.3,0.4c0.8,0.1,1.5,0.3,2.3,0.4
			c0.4,0.1,0.8,0.1,1.2,0.2c0.4,0.1,0.8,0.1,1.2,0.2c0.4,0.1,0.7,0.1,1.1,0.2c0,0,0,0,0.1,0c0.4,0.1,0.8,0.1,1.2,0.2
			c0.9,0.1,1.7,0.2,2.6,0.3c1.5,0.2,3,0.3,4.5,0.4c1.6,0.1,3.2,0.3,4.8,0.4h0.1c0.3,0,0.7,0,1,0.1c0.3,0,0.7,0,1,0.1h0.3
			c0.4,0,0.8,0,1.1,0.1c0.4,0,0.8,0,1.2,0.1c0.8,0,1.6,0,2.4,0.1c1.6,0,3.2,0.1,4.8,0.1C588.9,1590.2,590.5,1590.2,592.1,1590.1z"/>
		<path class="st1" d="M773.6,1425.8c0.1-0.4,0.1-0.7,0.1-1c0,0.5-0.1,1-0.1,1.5c-0.1,0.8-0.2,1.6-0.3,2.3c-0.1,0.4-0.1,0.9-0.2,1.3
			c-0.1,0.6-0.2,1.3-0.3,1.9c-0.1,0.6-0.2,1.3-0.3,1.9c-0.1,0.4-0.1,0.8-0.2,1.3c0,0.1,0,0.2,0,0.2c-0.1,0.4-0.2,0.9-0.2,1.3
			c-0.1,0.4-0.2,0.9-0.2,1.3l-0.2,1.1c0,0.1,0,0.1,0,0.2c0,0.2-0.1,0.3-0.1,0.5c-0.2,0.8-0.3,1.6-0.5,2.3c-0.2,0.7-0.3,1.4-0.5,2.1
			c-0.2,0.8-0.3,1.5-0.5,2.2c-0.1,0.6-0.3,1.1-0.4,1.6c-0.1,0.3-0.1,0.6-0.2,0.9c0,0.1,0,0.1,0,0.2c0,0.2-0.1,0.3-0.1,0.5
			c-0.3,1.2-0.6,2.3-0.9,3.4c-0.1,0.5-0.3,1.1-0.4,1.6c0,0.1-0.1,0.3-0.1,0.4c0,0.1,0,0.1-0.1,0.2c0,0.1,0,0.1-0.1,0.2
			c0,0.1-0.1,0.3-0.1,0.4c-0.2,0.5-0.3,1.1-0.5,1.6c-0.1,0.5-0.3,0.9-0.4,1.4c-0.3,1-0.6,2-1,2.9c-0.2,0.6-0.4,1.3-0.6,1.9
			c0,0.1-0.1,0.3-0.1,0.4c-0.2,0.6-0.5,1.3-0.7,1.9c-0.1,0.3-0.2,0.6-0.3,0.9c-0.1,0.4-0.3,0.7-0.4,1.1c0,0,0,0,0,0.1
			c-0.4,1.1-0.9,2.3-1.3,3.4c-0.1,0.3-0.2,0.5-0.3,0.7c-0.1,0.2-0.1,0.4-0.2,0.6c-0.8,1.9-1.6,3.9-2.4,5.8c-0.2,0.5-0.5,1.1-0.7,1.6
			c-0.4,0.9-0.8,1.9-1.3,2.8c-0.1,0.2-0.2,0.4-0.3,0.6c0,0.1-0.1,0.2-0.1,0.3s-0.1,0.1-0.1,0.2c-0.5,1.1-1.1,2.2-1.6,3.3
			c-0.2,0.4-0.5,0.9-0.7,1.3c-0.1,0.2-0.2,0.4-0.3,0.6c-0.1,0.2-0.2,0.4-0.3,0.6c-0.1,0.3-0.3,0.5-0.4,0.8c-0.1,0.2-0.2,0.4-0.3,0.6
			c-0.6,1.1-1.2,2.2-1.8,3.3c-0.4,0.6-0.7,1.3-1.1,1.9c-0.4,0.6-0.7,1.3-1.1,1.9c-0.4,0.6-0.8,1.3-1.2,1.9c-0.4,0.6-0.8,1.3-1.2,1.9
			s-0.8,1.3-1.2,1.9c-0.2,0.4-0.5,0.8-0.8,1.2s-0.5,0.8-0.8,1.2c-0.3,0.4-0.5,0.8-0.8,1.2c-0.2,0.3-0.4,0.5-0.5,0.8
			c-0.4,0.6-0.8,1.2-1.3,1.8c-0.2,0.2-0.3,0.4-0.5,0.7c-0.3,0.4-0.6,0.9-0.9,1.3c-0.2,0.4-0.5,0.7-0.7,1c-0.1,0.1-0.1,0.2-0.2,0.3
			c-0.4,0.5-0.8,1-1.1,1.5c-0.2,0.2-0.3,0.4-0.5,0.6c-0.2,0.3-0.4,0.6-0.7,0.9c0,0,0,0,0,0.1c-0.1,0.1-0.1,0.2-0.2,0.2
			c-1.1,1.5-2.3,3-3.5,4.4c-0.2,0.2-0.3,0.4-0.5,0.6c0,0.1-0.1,0.1-0.2,0.2l-0.1,0.1c-2.4,2.9-4.8,5.6-7.3,8.3
			c-0.1,0.1-0.3,0.3-0.4,0.4c-0.8,0.9-1.7,1.8-2.5,2.6l-4.8,4.8c-0.8,0.8-1.6,1.5-2.4,2.2c-0.6,0.5-1.1,1.1-1.7,1.6
			c-1.2,1.1-2.5,2.2-3.8,3.3c-0.1,0.1-0.1,0.1-0.2,0.2c-0.1,0.1-0.1,0.1-0.2,0.2c-0.5,0.4-1,0.9-1.6,1.3c-0.5,0.5-1.1,0.9-1.6,1.3
			c-0.1,0.1-0.2,0.2-0.4,0.3c-0.5,0.5-1.1,0.9-1.7,1.4c-0.1,0.1-0.2,0.1-0.3,0.2c-0.7,0.5-1.4,1.1-2.1,1.6c-0.4,0.3-0.8,0.6-1.2,0.9
			c-0.3,0.2-0.6,0.4-0.9,0.6c-0.3,0.2-0.6,0.4-0.9,0.6c-0.3,0.2-0.5,0.4-0.8,0.6c-0.4,0.3-0.7,0.5-1.1,0.8c-0.4,0.3-0.8,0.6-1.2,0.9
			c-0.2,0.1-0.4,0.3-0.7,0.4c-0.9,0.6-1.8,1.3-2.8,1.9c-0.2,0.2-0.5,0.3-0.7,0.5c-0.1,0.1-0.3,0.2-0.5,0.3c-0.7,0.5-1.4,0.9-2.1,1.4
			c-0.3,0.2-0.6,0.4-0.9,0.6l-1,0.6c-0.1,0.1-0.2,0.1-0.3,0.2c-0.2,0.1-0.3,0.2-0.4,0.3c-0.3,0.2-0.6,0.3-0.9,0.5
			c-0.5,0.3-1,0.6-1.6,0.9c-0.4,0.3-0.9,0.5-1.4,0.8c-0.1,0.1-0.2,0.1-0.3,0.2c-0.4,0.3-0.9,0.5-1.3,0.8c-0.4,0.3-0.9,0.5-1.3,0.8
			c-0.7,0.4-1.3,0.7-2,1.1c-0.7,0.4-1.3,0.7-2,1.1s-1.3,0.7-2,1.1c-0.7,0.3-1.3,0.7-2,1c-0.6,0.3-1.1,0.6-1.7,0.8
			c-1.1,0.5-2.1,1-3.2,1.5c-0.1,0-0.2,0.1-0.3,0.2c-0.2,0.1-0.3,0.1-0.5,0.2c-0.5,0.2-1,0.4-1.5,0.7c-0.3,0.2-0.7,0.3-1,0.5
			c-0.7,0.3-1.4,0.6-2.1,0.9c0,0,0,0-0.1,0l-1.5,0.6c-0.2,0.1-0.5,0.2-0.7,0.3c-0.7,0.3-1.4,0.6-2.1,0.8c-0.3,0.1-0.6,0.2-0.8,0.3
			c-0.1,0-0.3,0.1-0.4,0.1c-0.2,0.1-0.3,0.1-0.5,0.2c-0.4,0.2-0.8,0.3-1.2,0.5c-1.3,0.5-2.7,1-4,1.5c-0.6,0.2-1.2,0.4-1.8,0.6
			c-0.7,0.3-1.5,0.5-2.2,0.7c-0.7,0.2-1.5,0.5-2.2,0.7c-0.7,0.2-1.5,0.4-2.2,0.7c-0.7,0.3-1.5,0.4-2.2,0.7c-1,0.3-2,0.6-3,0.8
			c-0.2,0.1-0.4,0.1-0.7,0.2h-0.1c-0.1,0-0.3,0.1-0.4,0.1c-0.8,0.2-1.7,0.4-2.5,0.6c-0.6,0.1-1.2,0.3-1.8,0.4
			c-0.9,0.2-1.9,0.4-2.8,0.6c-0.2,0.1-0.5,0.1-0.7,0.2c-0.7,0.2-1.4,0.3-2.1,0.4c-1.4,0.3-2.7,0.5-4.1,0.8c-0.8,0.1-1.5,0.3-2.3,0.4
			s-1.5,0.3-2.3,0.4c-0.4,0.1-0.8,0.1-1.2,0.2s-0.8,0.1-1.2,0.2c-0.4,0.1-0.7,0.1-1.1,0.2c0,0,0,0-0.1,0c-0.4,0.1-0.8,0.1-1.2,0.2
			c-0.9,0.1-1.7,0.2-2.6,0.3c-1.5,0.2-3,0.3-4.5,0.4c-0.6,0-1.2,0.1-1.8,0.2c-2.8,0.1-5.6,0.3-8.4,0.3c0.2,0,0.4,0,0.6-0.1
			c0.4,0,0.8,0,1.2-0.1c0.4,0,0.8,0,1.1-0.1h0.3c0.3,0,0.7,0,1-0.1c0.3,0,0.7,0,1-0.1h0.1c1.6-0.1,3.2-0.2,4.8-0.4
			c1.5-0.1,3-0.3,4.5-0.4c0.9-0.1,1.7-0.2,2.6-0.3c0.4-0.1,0.8-0.1,1.2-0.2c0,0,0,0,0.1,0c0.4,0,0.7-0.1,1.1-0.2
			c0.4,0,0.8-0.1,1.2-0.2c0.4-0.1,0.8-0.1,1.2-0.2c0.8-0.1,1.5-0.2,2.3-0.4c0.8-0.2,1.5-0.3,2.3-0.4c1.4-0.2,2.7-0.5,4.1-0.8
			c0.7-0.1,1.4-0.3,2.1-0.4c0.2,0,0.5-0.1,0.7-0.2c0.9-0.2,1.9-0.4,2.8-0.6c0.6-0.1,1.2-0.3,1.8-0.4c0.8-0.2,1.7-0.4,2.5-0.6
			c0.1,0,0.3-0.1,0.4-0.1h0.1c0.2-0.1,0.4-0.1,0.7-0.2c0.2-0.1,0.5-0.1,0.7-0.2c0.8-0.2,1.6-0.4,2.3-0.7c0.7-0.2,1.5-0.4,2.2-0.7
			c0.7-0.3,1.5-0.4,2.2-0.7c0.7-0.2,1.5-0.5,2.2-0.7c0.7-0.2,1.5-0.5,2.2-0.7c0.6-0.2,1.2-0.4,1.8-0.6c1.3-0.5,2.7-1,4-1.5
			c0.4-0.2,0.8-0.3,1.2-0.5c0.2-0.1,0.3-0.1,0.5-0.2c0.1-0.1,0.2-0.1,0.4-0.1c0.3-0.1,0.6-0.2,0.8-0.3c0.7-0.3,1.4-0.5,2.1-0.8
			c0.2-0.1,0.5-0.2,0.7-0.3l1.5-0.6c0,0,0,0,0.1,0l2.1-0.9c0.3-0.2,0.7-0.3,1-0.5c0.5-0.2,1-0.4,1.5-0.7c0.2-0.1,0.3-0.1,0.5-0.2
			c0.1-0.1,0.2-0.1,0.3-0.2c1.1-0.5,2.1-1,3.2-1.5c0.6-0.3,1.1-0.5,1.7-0.8c0.7-0.3,1.3-0.7,2-1c0.7-0.3,1.3-0.7,2-1.1
			c0.7-0.3,1.3-0.7,2-1.1c0.7-0.4,1.3-0.7,2-1.1c0.5-0.3,0.9-0.5,1.3-0.8c0.4-0.3,0.9-0.5,1.3-0.8c0.1-0.1,0.2-0.1,0.3-0.2
			c0.5-0.3,0.9-0.5,1.4-0.8c0.5-0.3,1-0.6,1.6-0.9c0.3-0.2,0.6-0.3,0.9-0.5c0.1-0.1,0.3-0.2,0.4-0.3c0.1-0.1,0.2-0.1,0.3-0.2l1-0.6
			c0.3-0.2,0.6-0.4,0.9-0.6c0.7-0.4,1.4-0.9,2.1-1.4c0.2-0.1,0.3-0.2,0.5-0.3c0.2-0.2,0.5-0.3,0.7-0.5c0.9-0.6,1.8-1.2,2.8-1.9
			c0.2-0.1,0.4-0.3,0.7-0.4c0.4-0.3,0.8-0.6,1.2-0.9c0.4-0.3,0.7-0.5,1.1-0.8c0.3-0.2,0.5-0.4,0.8-0.6l0.9-0.6
			c0.3-0.2,0.6-0.4,0.9-0.6c0.4-0.3,0.8-0.6,1.2-0.9c0.7-0.5,1.4-1.1,2.1-1.6c0.1-0.1,0.2-0.2,0.3-0.2c0.6-0.4,1.1-0.9,1.7-1.4
			c0.1-0.1,0.2-0.2,0.4-0.3c0.6-0.4,1.1-0.9,1.6-1.3c0.5-0.4,1-0.9,1.6-1.3c0.1-0.1,0.1-0.1,0.2-0.2c0.1-0.1,0.2-0.1,0.3-0.2
			c1.3-1.1,2.5-2.2,3.8-3.3c0.6-0.5,1.2-1.1,1.7-1.6c0.8-0.7,1.6-1.5,2.4-2.2c0.5-0.4,0.9-0.8,1.3-1.3c0.4-0.3,0.7-0.7,1.1-1.1
			l2.4-2.4c0.9-0.9,1.7-1.8,2.5-2.6c0.1-0.1,0.3-0.3,0.4-0.4c2.5-2.7,5-5.5,7.3-8.3l0.1-0.1c0.1-0.1,0.1-0.1,0.2-0.2
			c0.2-0.2,0.3-0.4,0.5-0.6c1.2-1.5,2.4-2.9,3.5-4.4c0.1-0.1,0.1-0.2,0.2-0.2c0,0,0,0,0-0.1c0.2-0.3,0.4-0.6,0.7-0.9
			c0.2-0.2,0.3-0.4,0.5-0.6c0.4-0.5,0.8-1,1.1-1.5c0.1-0.1,0.1-0.2,0.2-0.3c0.3-0.3,0.5-0.7,0.7-1c0.3-0.4,0.6-0.8,0.9-1.3
			c0.2-0.2,0.3-0.4,0.5-0.7c0.4-0.6,0.9-1.2,1.3-1.8c0.2-0.3,0.4-0.5,0.5-0.8c0.3-0.4,0.6-0.8,0.8-1.2c0.3-0.4,0.5-0.8,0.8-1.2
			s0.5-0.8,0.8-1.2c0.4-0.6,0.8-1.3,1.2-1.9s0.8-1.3,1.2-1.9c0.4-0.6,0.8-1.3,1.2-1.9c0.4-0.6,0.8-1.3,1.1-1.9
			c0.4-0.6,0.8-1.3,1.1-1.9c0.6-1.1,1.2-2.2,1.8-3.3c0.1-0.2,0.2-0.4,0.3-0.6c0.1-0.3,0.3-0.5,0.4-0.8c0.1-0.2,0.2-0.4,0.3-0.6
			c0.1-0.2,0.2-0.4,0.3-0.6c0.2-0.4,0.5-0.9,0.7-1.3c0.6-1.1,1.1-2.2,1.6-3.3c0-0.1,0.1-0.1,0.1-0.2s0.1-0.2,0.1-0.3
			c0.1-0.2,0.2-0.4,0.3-0.6c0.4-0.9,0.9-1.8,1.3-2.8c0.3-0.5,0.5-1.1,0.7-1.6c0.9-1.9,1.7-3.8,2.4-5.8c0.1-0.2,0.2-0.4,0.2-0.6
			c0.1-0.2,0.2-0.5,0.3-0.7c0.5-1.1,0.9-2.3,1.3-3.4v-0.1c0.1-0.4,0.3-0.7,0.4-1.1c0.1-0.3,0.2-0.6,0.3-0.9c0.2-0.7,0.5-1.3,0.7-1.9
			c0-0.1,0.1-0.3,0.1-0.4c0.2-0.6,0.4-1.3,0.6-1.9c0.3-1,0.6-1.9,1-2.9c0.2-0.5,0.3-0.9,0.4-1.4c0.2-0.5,0.3-1.1,0.5-1.6
			c0.1-0.2,0.1-0.4,0.2-0.6c0-0.1,0-0.2,0.1-0.2c0-0.1,0.1-0.3,0.1-0.4c0.2-0.5,0.3-1.1,0.4-1.6c0.3-1.1,0.6-2.3,0.9-3.4
			c0-0.2,0.1-0.3,0.1-0.5c0,0,0-0.1,0-0.2c0.1-0.3,0.2-0.6,0.2-0.9c0.1-0.5,0.3-1.1,0.4-1.6c0.2-0.7,0.4-1.5,0.5-2.2
			c0.2-0.7,0.3-1.4,0.5-2.1c0.2-0.8,0.3-1.5,0.5-2.3c0-0.2,0.1-0.3,0.1-0.5c0-0.1,0-0.1,0-0.2l0.2-1.1c0.1-0.4,0.2-0.9,0.2-1.3
			c0.1-0.4,0.2-0.9,0.2-1.3c0-0.1,0-0.1,0-0.2c0.1-0.4,0.2-0.8,0.2-1.3c0.1-0.6,0.2-1.3,0.3-1.9c0.1-0.6,0.2-1.3,0.3-1.9
			c0.1-0.4,0.1-0.9,0.2-1.3C773.4,1427.3,773.5,1426.5,773.6,1425.8z"/>
		<path class="st1" d="M774.8,1413c0-0.4,0.1-0.8,0.1-1.2v0.5c0,0.4,0,0.8-0.1,1.2c0,0.6-0.1,1.3-0.1,1.9c-0.1,1.2-0.2,2.4-0.3,3.5
			c-0.1,1.6-0.3,3.1-0.5,4.7c0,0.2-0.1,0.5-0.1,0.7c0,0.2,0,0.3-0.1,0.5c0-0.3,0.1-0.7,0.1-1c0-0.2,0.1-0.5,0.1-0.7
			c0.2-1.6,0.3-3.1,0.5-4.7c0.1-1.2,0.2-2.4,0.3-3.5C774.7,1414.3,774.8,1413.6,774.8,1413z"/>
		<path class="st1" d="M775,1409.1v0.5c0,0.5,0,0.9-0.1,1.4v-0.5C774.9,1410,774.9,1409.6,775,1409.1z"/>
		<linearGradient id="SVGID_1_" gradientUnits="userSpaceOnUse" x1="174.9774" y1="1402.1" x2="858.8063" y2="1402.1">
			<stop  offset="0" style="stop-color:#0B00FF"/>
			<stop  offset="1" style="stop-color:#8300AA"/>
		</linearGradient>
		<path class="st2" d="M963,1402c0,207.1-167.9,375-375,375c-68.5,0-132.7-18.4-188-50.5v-316.9c0,0.5,0,0.9,0.1,1.4v1.3
			c0,0.4,0,0.8,0.1,1.2c0,0.6,0.1,1.3,0.1,1.9c0.1,1.2,0.2,2.4,0.3,3.5c0.1,1.6,0.3,3.1,0.5,4.7c0,0.2,0.1,0.5,0.1,0.7
			c0.1,0.7,0.1,1.3,0.2,2c0.1,0.8,0.2,1.6,0.3,2.3c0.1,0.4,0.1,0.9,0.2,1.3c0.1,0.6,0.2,1.3,0.3,1.9c0.1,0.6,0.2,1.3,0.3,1.9
			c0.2,0.9,0.3,1.9,0.5,2.8c0.1,0.4,0.2,0.9,0.2,1.3l0.2,1.1c0,0.1,0,0.1,0,0.2c0,0.2,0.1,0.3,0.1,0.5c0.2,0.8,0.3,1.6,0.5,2.3
			c0.2,0.7,0.3,1.4,0.5,2.1c0.2,0.8,0.3,1.5,0.5,2.2c0.1,0.6,0.3,1.1,0.4,1.6c0.1,0.3,0.1,0.6,0.2,0.9c0,0.1,0,0.1,0,0.2
			c0,0.2,0.1,0.3,0.1,0.5c0.3,1.2,0.6,2.3,0.9,3.4c0.2,0.5,0.3,1,0.4,1.6c0,0.1,0.1,0.3,0.1,0.4c0.1,0.3,0.2,0.5,0.2,0.8
			c0.2,0.5,0.3,1.1,0.5,1.6c0.1,0.5,0.3,0.9,0.4,1.4c0.3,1,0.6,2,1,2.9c0.2,0.6,0.4,1.3,0.6,1.9c0,0.1,0.1,0.3,0.1,0.4
			c0.2,0.6,0.5,1.3,0.7,1.9c0.1,0.3,0.2,0.6,0.3,0.9l0.2,0.6c0.1,0.2,0.1,0.3,0.2,0.5c0,0,0,0,0,0.1c0.4,1.1,0.9,2.3,1.3,3.4
			c0.1,0.3,0.2,0.5,0.3,0.7c0.1,0.2,0.1,0.4,0.2,0.6c0.8,1.9,1.6,3.9,2.4,5.8c0.2,0.5,0.5,1.1,0.7,1.6c0.4,1,0.9,1.9,1.3,2.9
			c0.1,0.2,0.2,0.3,0.2,0.5c0,0.1,0.1,0.2,0.1,0.3s0.1,0.1,0.1,0.2c0.2,0.4,0.4,0.9,0.6,1.3c0.1,0.2,0.2,0.3,0.3,0.5
			c0.3,0.5,0.5,1,0.7,1.5c0.2,0.4,0.5,0.9,0.7,1.3c0.1,0.2,0.2,0.4,0.3,0.6s0.2,0.4,0.3,0.6c0.1,0.3,0.3,0.5,0.4,0.8
			c0.1,0.2,0.2,0.4,0.3,0.6c0.6,1.1,1.2,2.2,1.8,3.3c0.4,0.6,0.7,1.3,1.1,1.9c0.4,0.6,0.8,1.3,1.1,1.9c0.4,0.6,0.8,1.3,1.2,1.9
			c0.4,0.6,0.8,1.3,1.2,1.9c0.4,0.6,0.8,1.3,1.2,1.9c0.5,0.7,0.9,1.5,1.4,2.2c0,0.1,0.1,0.1,0.1,0.1c0.3,0.4,0.5,0.8,0.8,1.2
			c0.2,0.3,0.4,0.5,0.5,0.8c0.4,0.6,0.8,1.2,1.3,1.8c0.2,0.2,0.3,0.4,0.5,0.7c0.6,0.9,1.2,1.7,1.8,2.6c0.2,0.2,0.4,0.5,0.5,0.7
			c0.1,0.2,0.2,0.3,0.3,0.4c0.1,0.1,0.2,0.3,0.2,0.4c0.3,0.3,0.5,0.7,0.8,1c0.1,0.1,0.2,0.3,0.3,0.4c0.4,0.5,0.8,1,1.1,1.4
			c0.5,0.7,1.1,1.4,1.7,2.1c0.1,0.1,0.3,0.3,0.4,0.5c0.1,0.1,0.1,0.2,0.2,0.3c0,0,0,0,0,0c0.1,0.1,0.1,0.2,0.1,0.3
			c0.1,0.1,0.2,0.2,0.2,0.3c0.1,0.1,0.2,0.3,0.3,0.4c0.1,0.1,0.2,0.3,0.4,0.4c0.5,0.6,1,1.2,1.5,1.7c0.4,0.4,0.7,0.9,1.1,1.3
			c0.9,1,1.7,2,2.6,2.9c0.3,0.4,0.7,0.8,1,1.1c0.3,0.3,0.6,0.7,0.9,1l0.8,0.8c0.2,0.2,0.4,0.4,0.6,0.6c0.1,0.1,0.1,0.1,0.2,0.2
			c0.1,0.1,0.3,0.3,0.4,0.4c0.3,0.4,0.7,0.8,1.1,1.1c0,0,0.1,0.1,0.1,0.1l0.3,0.3c0.7,0.7,1.4,1.4,2,2.1c0.1,0.1,0.2,0.2,0.3,0.3
			c0.7,0.7,1.4,1.4,2.2,2.1l0.3,0.3c0.2,0.2,0.5,0.5,0.7,0.6c0.1,0.1,0.1,0.1,0.2,0.2c0.7,0.6,1.3,1.2,2,1.8l0.3,0.3c0,0,0,0,0,0
			c0.2,0.2,0.4,0.3,0.6,0.5c0,0,0,0,0,0c1.3,1.1,2.5,2.3,3.8,3.3c0,0,0,0,0,0.1c0,0,0,0,0,0c0,0,0.1,0,0.1,0
			c0.1,0.1,0.1,0.1,0.2,0.2c0.2,0.2,0.5,0.4,0.7,0.6c0.2,0.1,0.3,0.3,0.5,0.4c0.1,0.1,0.3,0.2,0.4,0.3c0.5,0.5,1.1,0.9,1.6,1.3
			c0.1,0.1,0.2,0.2,0.4,0.3c0.5,0.5,1.1,0.9,1.7,1.4c0.1,0.1,0.2,0.1,0.3,0.2c0.7,0.5,1.4,1.1,2.1,1.6c0.4,0.3,0.8,0.6,1.2,0.9
			c0.3,0.2,0.6,0.4,0.9,0.6c0.3,0.2,0.6,0.4,0.9,0.6c0.3,0.2,0.5,0.4,0.8,0.6c0.4,0.3,0.7,0.5,1.1,0.8c0.4,0.3,0.8,0.6,1.2,0.9
			c0.2,0.1,0.4,0.3,0.7,0.4c0.9,0.6,1.8,1.3,2.8,1.9c0.2,0.2,0.5,0.3,0.7,0.5c0.1,0.1,0.3,0.2,0.5,0.3c0.7,0.5,1.4,0.9,2.1,1.4
			c0.3,0.2,0.6,0.4,0.9,0.6l1,0.6c0.1,0.1,0.2,0.1,0.3,0.2c0.2,0.1,0.3,0.2,0.4,0.3c0.3,0.2,0.6,0.3,0.9,0.5c0.5,0.3,1,0.6,1.6,0.9
			c0.4,0.3,0.9,0.5,1.4,0.8c0.1,0.1,0.2,0.1,0.3,0.2c0.4,0.3,0.9,0.5,1.3,0.8c0.4,0.3,0.9,0.5,1.3,0.8c0.7,0.4,1.3,0.7,2,1.1
			s1.3,0.7,2,1.1s1.3,0.7,2,1.1c0.7,0.3,1.3,0.7,2,1c0.6,0.3,1.1,0.6,1.7,0.8c1.1,0.5,2.1,1,3.2,1.5c0.1,0,0.2,0.1,0.3,0.2
			c0.2,0.1,0.3,0.1,0.5,0.2c0.5,0.2,1,0.4,1.5,0.7c0.3,0.2,0.7,0.3,1,0.5c0.7,0.3,1.4,0.6,2.1,0.9c0,0,0,0,0.1,0
			c0.5,0.2,1,0.4,1.5,0.6c0.2,0.1,0.5,0.2,0.7,0.3c0.7,0.3,1.4,0.6,2.1,0.8c0.3,0.1,0.6,0.2,0.8,0.3c0.1,0,0.3,0.1,0.4,0.1
			c0.2,0.1,0.3,0.1,0.5,0.2c0.4,0.2,0.8,0.3,1.2,0.5c1.3,0.5,2.7,1,4,1.5c0.6,0.2,1.2,0.4,1.8,0.6c0.7,0.3,1.5,0.5,2.2,0.7
			c0.7,0.2,1.5,0.5,2.2,0.7c0.7,0.2,1.5,0.4,2.2,0.7s1.5,0.4,2.2,0.7c0.8,0.2,1.6,0.4,2.3,0.7c0.2,0.1,0.5,0.1,0.7,0.2
			c0.2,0.1,0.4,0.1,0.7,0.2h0.1c0.1,0,0.3,0.1,0.4,0.1c0.8,0.2,1.7,0.4,2.5,0.6c0.6,0.1,1.2,0.3,1.8,0.4c0.9,0.2,1.9,0.4,2.8,0.6
			c0.2,0.1,0.5,0.1,0.7,0.2c0.7,0.2,1.4,0.3,2.1,0.4c1.4,0.3,2.7,0.5,4.1,0.8c0.8,0.1,1.5,0.3,2.3,0.4c0.8,0.1,1.5,0.3,2.3,0.4
			c0.4,0.1,0.8,0.1,1.2,0.2c0.4,0.1,0.8,0.1,1.2,0.2c0.4,0.1,0.7,0.1,1.1,0.2c0,0,0,0,0.1,0c0.4,0.1,0.8,0.1,1.2,0.2
			c0.9,0.1,1.7,0.2,2.6,0.3c1.5,0.2,3,0.3,4.5,0.4c1.6,0.1,3.2,0.3,4.8,0.4h0.1c0.3,0,0.7,0,1,0.1c0.3,0,0.7,0,1,0.1h0.3
			c0.4,0,0.8,0,1.1,0.1c0.4,0,0.8,0,1.2,0.1c0.8,0,1.6,0,2.4,0.1c1.6,0,3.2,0.1,4.8,0.1c1.6,0,3.2,0,4.8-0.1c1.8,0,3.7-0.1,5.5-0.2
			c62.5-2.3,119.8-24.9,165.5-61.5c1.8-1.5,3.6-2.9,5.4-4.4c61.3-51.6,100.3-128.9,100.3-215.3c0-154.3-124.1-279.5-277.9-281.5
			c5.8,0,11.6,0.2,17.3,0.5C806,1038.2,963,1201.7,963,1402z"/>
		<linearGradient id="SVGID_2_" gradientUnits="userSpaceOnUse" x1="593.2858" y1="1589.8098" x2="594.4899" y2="1588.8256">
			<stop  offset="0" style="stop-color:#8300AA"/>
			<stop  offset="0.7155" style="stop-color:#0B00FF"/>
		</linearGradient>
		<path class="st3" d="M592.3,1589.9c0.6,0,1.2,0,1.8,0C593.5,1589.9,592.9,1589.9,592.3,1589.9z"/>
		<linearGradient id="SVGID_3_" gradientUnits="userSpaceOnUse" x1="494.8579" y1="1402.207" x2="1324.6757" y2="723.8795">
			<stop  offset="0" style="stop-color:#8300AA"/>
			<stop  offset="0.7155" style="stop-color:#0B00FF"/>
		</linearGradient>
		<path class="st4" d="M869,1308.5c0,86.5-39,163.9-100.5,215.5c-1.8,1.5-3.6,3-5.4,4.4c-44.5,35.5-100,57.9-160.6,61.1
			c-2.8,0.1-5.6,0.3-8.4,0.3c0.2,0,0.4,0,0.6-0.1c0.4,0,0.8,0,1.2-0.1c0.4,0,0.8,0,1.1-0.1h0.3c0.3,0,0.7,0,1-0.1c0.3,0,0.7,0,1-0.1
			h0.1c1.6-0.1,3.2-0.2,4.8-0.4c1.5-0.1,3-0.3,4.5-0.4c0.9-0.1,1.7-0.2,2.6-0.3c0.4-0.1,0.8-0.1,1.2-0.2c0,0,0,0,0.1,0
			c0.4,0,0.7-0.1,1.1-0.2c0.4,0,0.8-0.1,1.2-0.2c0.4-0.1,0.8-0.1,1.2-0.2c0.8-0.1,1.5-0.2,2.3-0.4c0.8-0.2,1.5-0.3,2.3-0.4
			c1.4-0.2,2.7-0.5,4.1-0.8c0.7-0.1,1.4-0.3,2.1-0.4c0.2,0,0.5-0.1,0.7-0.2c0.9-0.2,1.9-0.4,2.8-0.6c0.6-0.1,1.2-0.3,1.8-0.4
			c0.8-0.2,1.7-0.4,2.5-0.6c0.1,0,0.3-0.1,0.4-0.1h0.1c0.2-0.1,0.4-0.1,0.7-0.2c0.2-0.1,0.5-0.1,0.7-0.2c0.8-0.2,1.6-0.4,2.3-0.7
			c0.7-0.2,1.5-0.4,2.2-0.7c0.7-0.3,1.5-0.4,2.2-0.7c0.7-0.2,1.5-0.5,2.2-0.7c0.7-0.2,1.5-0.5,2.2-0.7c0.6-0.2,1.2-0.4,1.8-0.6
			c1.3-0.5,2.7-1,4-1.5c0.4-0.2,0.8-0.3,1.2-0.5c0.2-0.1,0.3-0.1,0.5-0.2c0.1-0.1,0.2-0.1,0.4-0.1c0.3-0.1,0.6-0.2,0.8-0.3
			c0.7-0.3,1.4-0.5,2.1-0.8c0.2-0.1,0.5-0.2,0.7-0.3l1.5-0.6c0,0,0,0,0.1,0l2.1-0.9c0.3-0.2,0.7-0.3,1-0.5c0.5-0.2,1-0.4,1.5-0.7
			c0.2-0.1,0.3-0.1,0.5-0.2c0.1-0.1,0.2-0.1,0.3-0.2c1.1-0.5,2.1-1,3.2-1.5c0.6-0.3,1.1-0.5,1.7-0.8c0.7-0.3,1.3-0.7,2-1
			c0.7-0.3,1.3-0.7,2-1.1c0.7-0.3,1.3-0.7,2-1.1c0.7-0.4,1.3-0.7,2-1.1c0.5-0.3,0.9-0.5,1.3-0.8c0.4-0.3,0.9-0.5,1.3-0.8
			c0.1-0.1,0.2-0.1,0.3-0.2c0.5-0.3,0.9-0.5,1.4-0.8c0.5-0.3,1-0.6,1.6-0.9c0.3-0.2,0.6-0.3,0.9-0.5c0.1-0.1,0.3-0.2,0.4-0.3
			c0.1-0.1,0.2-0.1,0.3-0.2l1-0.6c0.3-0.2,0.6-0.4,0.9-0.6c0.7-0.4,1.4-0.9,2.1-1.4c0.2-0.1,0.3-0.2,0.5-0.3
			c0.2-0.2,0.5-0.3,0.7-0.5c0.9-0.6,1.8-1.2,2.8-1.9c0.2-0.1,0.4-0.3,0.7-0.4c0.4-0.3,0.8-0.6,1.2-0.9c0.4-0.3,0.7-0.5,1.1-0.8
			c0.3-0.2,0.5-0.4,0.8-0.6l0.9-0.6c0.3-0.2,0.6-0.4,0.9-0.6c0.4-0.3,0.8-0.6,1.2-0.9c0.7-0.5,1.4-1.1,2.1-1.6
			c0.1-0.1,0.2-0.2,0.3-0.2c0.6-0.4,1.1-0.9,1.7-1.4c0.1-0.1,0.2-0.2,0.4-0.3c0.6-0.4,1.1-0.9,1.6-1.3c0.5-0.4,1-0.9,1.6-1.3
			c0.1-0.1,0.1-0.1,0.2-0.2c0.1-0.1,0.2-0.1,0.3-0.2c1.3-1.1,2.5-2.2,3.8-3.3c0.6-0.5,1.2-1.1,1.7-1.6c0.8-0.7,1.6-1.5,2.4-2.2
			c0.5-0.4,0.9-0.8,1.3-1.3c0.4-0.3,0.7-0.7,1.1-1.1l2.4-2.4c0.9-0.9,1.7-1.8,2.5-2.6c0.1-0.1,0.3-0.3,0.4-0.4
			c2.5-2.7,5-5.5,7.3-8.3l0.1-0.1c0.1-0.1,0.1-0.1,0.2-0.2c0.2-0.2,0.3-0.4,0.5-0.6c1.2-1.5,2.4-2.9,3.5-4.4
			c0.1-0.1,0.1-0.2,0.2-0.2c0,0,0,0,0-0.1c0.2-0.3,0.4-0.6,0.7-0.9c0.2-0.2,0.3-0.4,0.5-0.6c0.4-0.5,0.8-1,1.1-1.5
			c0.1-0.1,0.1-0.2,0.2-0.3c0.3-0.3,0.5-0.7,0.7-1c0.3-0.4,0.6-0.8,0.9-1.3c0.2-0.2,0.3-0.4,0.5-0.7c0.4-0.6,0.9-1.2,1.3-1.8
			c0.2-0.3,0.4-0.5,0.5-0.8c0.3-0.4,0.6-0.8,0.8-1.2c0.3-0.4,0.5-0.8,0.8-1.2s0.5-0.8,0.8-1.2c0.4-0.6,0.8-1.3,1.2-1.9
			s0.8-1.3,1.2-1.9c0.4-0.6,0.8-1.3,1.2-1.9c0.4-0.6,0.8-1.3,1.1-1.9c0.4-0.6,0.8-1.3,1.1-1.9c0.6-1.1,1.2-2.2,1.8-3.3
			c0.1-0.2,0.2-0.4,0.3-0.6c0.1-0.3,0.3-0.5,0.4-0.8c0.1-0.2,0.2-0.4,0.3-0.6c0.1-0.2,0.2-0.4,0.3-0.6c0.2-0.4,0.5-0.9,0.7-1.3
			c0.6-1.1,1.1-2.2,1.6-3.3c0-0.1,0.1-0.1,0.1-0.2s0.1-0.2,0.1-0.3c0.1-0.2,0.2-0.4,0.3-0.6c0.4-0.9,0.9-1.8,1.3-2.8
			c0.3-0.5,0.5-1.1,0.7-1.6c0.9-1.9,1.7-3.8,2.4-5.8c0.1-0.2,0.2-0.4,0.2-0.6c0.1-0.2,0.2-0.5,0.3-0.7c0.5-1.1,0.9-2.3,1.3-3.4v-0.1
			c0.1-0.4,0.3-0.7,0.4-1.1c0.1-0.3,0.2-0.6,0.3-0.9c0.2-0.7,0.5-1.3,0.7-1.9c0-0.1,0.1-0.3,0.1-0.4c0.2-0.6,0.4-1.3,0.6-1.9
			c0.3-1,0.6-1.9,1-2.9c0.2-0.5,0.3-0.9,0.4-1.4c0.2-0.5,0.3-1.1,0.5-1.6c0.1-0.2,0.1-0.4,0.2-0.6c0-0.1,0-0.2,0.1-0.2
			c0-0.1,0.1-0.3,0.1-0.4c0.2-0.5,0.3-1.1,0.4-1.6c0.3-1.1,0.6-2.3,0.9-3.4c0-0.2,0.1-0.3,0.1-0.5c0,0,0-0.1,0-0.2
			c0.1-0.3,0.2-0.6,0.2-0.9c0.1-0.5,0.3-1.1,0.4-1.6c0.2-0.7,0.4-1.5,0.5-2.2c0.2-0.7,0.3-1.4,0.5-2.1c0.2-0.8,0.3-1.5,0.5-2.3
			c0-0.2,0.1-0.3,0.1-0.5c0-0.1,0-0.1,0-0.2l0.2-1.1c0.1-0.4,0.2-0.9,0.2-1.3c0.1-0.4,0.2-0.9,0.2-1.3c0-0.1,0-0.1,0-0.2
			c0.1-0.4,0.2-0.8,0.2-1.3c0.1-0.6,0.2-1.3,0.3-1.9c0.1-0.6,0.2-1.3,0.3-1.9c0.1-0.4,0.1-0.9,0.2-1.3c0.1-0.8,0.2-1.6,0.3-2.3
			c0.1-0.4,0.1-0.7,0.1-1v0c0-0.3,0.1-0.7,0.1-1c0-0.2,0.1-0.5,0.1-0.7c0.2-1.6,0.3-3.1,0.5-4.7c0.1-1.2,0.2-2.4,0.3-3.5
			c0-0.6,0.1-1.3,0.1-1.9c0-0.4,0.1-0.8,0.1-1.2v-1.3c0-0.5,0-0.9,0.1-1.4v-7.1c0-0.6,0-1.3,0-1.9c-1-102.7-84.5-185.6-187.5-185.6
			c-103.6,0-187.5,84.4-187.5,188V1846c0,64.1-76.6,116.4-172.5,118.9c-3.2,0.1-5.9-2.5-5.9-5.7l-4.3-500.6l-0.9-106.8
			c11.4-85.7,51.8-162.2,111-219.4c64.8-62.7,152.1-102.2,248.7-105.2c2.4-0.1,4.8-0.2,7.2-0.2h8c5.7,0.1,11.3,0.3,16.9,0.7
			C753.9,1038.3,869,1159.9,869,1308.5z"/>
		<path class="st5" d="M708.6,1647.7c-6.4,0-6.4,10,0,10S715,1647.7,708.6,1647.7z"/>
		<path class="st5" d="M348.7,1647.7c-1.2,0-2.2,0.4-3,1l0,0l0,0c-0.6-0.4-1.2-0.7-2-0.9l0,0l0,0l0,0l0,0l0,0l0,0
			c-0.3-0.1-0.6-0.1-0.9-0.1c-6.4,0-6.4,10,0,10c0.3,0,0.5,0,0.8-0.1l0,0l0,0l0,0l0,0c0.6-0.1,1.1-0.2,1.5-0.5l0,0h0.1l0,0
			c0.2-0.1,0.4-0.2,0.6-0.4l0,0l0,0c0.8,0.6,1.8,1,3,1C355.1,1657.7,355.1,1647.7,348.7,1647.7z"/>
	</g>
	<g id="Layer_2_1_">
		
			<linearGradient id="SVGID_4_" gradientUnits="userSpaceOnUse" x1="1039.0024" y1="1544.3" x2="1635.4027" y2="1544.3" gradientTransform="matrix(1 0 0 -1 0 3000)">
			<stop  offset="0" style="stop-color:#0B00FF"/>
			<stop  offset="0.4691" style="stop-color:#8300AA"/>
		</linearGradient>
		<path class="st6" d="M1611.4,1058.6c-0.2,8-1,15.8-2.5,23.4c-12.4,64.8-69.4,113.8-137.8,113.8h-25.8
			c-104.4,0-194.4,61.6-235.8,150.4c-13.9,38.3-22.2,79.3-23.8,122l0,0c-0.2,5.2-0.3,10.3-0.3,15.6c0,52.4,10,102.5,28.3,148.4
			c8.1,20.5,17.9,40.1,29.1,58.7c58.9,97.9,158.3,168.6,274.9,189.1c-23.5,4-47.7,6.1-72.4,6.1c-206.7,0-379.4-145.7-420.8-340.1
			c-6.2-29.1-9.5-59.3-9.5-90.3c0-6,0.1-12,0.4-17.9c3.9-94.3,38.1-180.8,93.2-250c65.4-82.2,160.3-139.8,268.7-157.1
			c22.2-3.5,44.9-5.4,68.1-5.4C1504.2,1025.4,1560.3,1037.2,1611.4,1058.6z"/>
		<path class="st7" d="M1399.2,1711.5c-20.1-3.6-39.3-9.5-57.5-17.4C1360.5,1700.8,1379.7,1706.6,1399.2,1711.5z"/>
		
			<linearGradient id="SVGID_5_" gradientUnits="userSpaceOnUse" x1="1185.3999" y1="1372.7" x2="1875.7999" y2="1372.7" gradientTransform="matrix(1 0 0 -1 0 3000)">
			<stop  offset="4.110369e-02" style="stop-color:#0B00FF"/>
			<stop  offset="0.8409" style="stop-color:#8300AA"/>
		</linearGradient>
		<path class="st8" d="M1875.6,1455.7c0,12.1-0.5,24.2-1.5,36c-5.7,68.4-27.3,132.2-61.2,187.8c-63.6,104.2-170.2,179.3-295.2,200.4
			c-116.7-20.5-216-91.2-274.9-189.1c-11.2-18.6-21-38.3-29.1-58.7c-18.2-45.9-28.3-96-28.3-148.4c0-5.2,0.1-10.4,0.3-15.6
			c4.8,101.3,67.6,187.5,156,225.9c18.2,7.9,37.5,13.8,57.5,17.4c14.8,2.7,30.1,4.1,45.6,4.1h0.5c31.1,0,60.8-5.4,88.5-15.4
			c66.2-24,120-74.1,148.7-137.9h-55.3c-51.8,0-93.7-42-93.7-93.7c0-25.9,10.5-49.3,27.5-66.3s40.4-27.5,66.3-27.5h156.2
			c46.2,0,84.5,33.4,92.3,77.3C1875.6,1453.2,1875.6,1454.5,1875.6,1455.7z"/>
		<path d="M1533.8,1700.1c-27.6,10-57.4,15.4-88.5,15.4h-0.5C1475.1,1713.1,1504.8,1707.9,1533.8,1700.1z"/>
	</g>
	<g id="Layer_3">
		
			<linearGradient id="SVGID_6_" gradientUnits="userSpaceOnUse" x1="1643" y1="1547.45" x2="2232.0999" y2="1547.45" gradientTransform="matrix(1 0 0 -1 0 3000)">
			<stop  offset="0" style="stop-color:#8300AA"/>
			<stop  offset="6.540643e-02" style="stop-color:#7B00B0"/>
			<stop  offset="1" style="stop-color:#0B00FF"/>
		</linearGradient>
		<path class="st9" d="M2231.4,1295.4c-0.4-2.1-0.8-4.1-1.4-6.2c-17,99-108.6,175.2-220.4,178.7c-2.6,0.1-5.2,0.1-7.9,0.1
			c-5.1,0-10.2-0.1-15.2-0.5L1843,1150.8l-15.4-34l-28.9-63.8H1643l281.7,621.4l80.5,177.7l74-180l120.4-292.9l32.5-79
			C2231.9,1298.6,2231.7,1297,2231.4,1295.4z M1997.4,1497.7l1.3-3.3l1.5,3.2C1999.3,1497.7,1998.3,1497.7,1997.4,1497.7z
			 M2192.9,1384.4c0,0,0-0.1,0.1-0.1l0,0C2193,1384.4,2192.9,1384.4,2192.9,1384.4z"/>
		<path d="M1012.4,1057.5l-0.8,2.3c-0.1-1.1-0.3-2.2-0.5-3.2c-0.2-1.4-0.5-2.8-0.8-4.2l0,0c0-0.1,0-0.1-0.1-0.2l0.1,0.1
			L1012.4,1057.5z"/>
		<path d="M868,1193c-0.6,0-1.2,0-1.7,0l0.8-2.2L868,1193z"/>
		<path d="M868,1193c-0.6,0-1.2,0-1.7,0l0.8-2.2L868,1193z"/>
		<path d="M1093,1025c-0.6,0-1.2,0-1.7,0l0.8-2.2L1093,1025z"/>
		<path d="M1093,1025c-0.6,0-1.2,0-1.7,0l0.8-2.2L1093,1025z"/>
		<path d="M868,1193c-0.6,0-1.2,0-1.7,0l0.8-2.2L868,1193z"/>
		
			<linearGradient id="SVGID_7_" gradientUnits="userSpaceOnUse" x1="2305.5923" y1="1880.75" x2="2308.3718" y2="1880.75" gradientTransform="matrix(1 0 0 -1 0 3000)">
			<stop  offset="0" style="stop-color:#8300AA"/>
			<stop  offset="1" style="stop-color:#0B00FF"/>
		</linearGradient>
		<path class="st10" d="M2308.4,1118.7c-0.9,0.9-1.9,1.9-2.8,2.9l1.9-4.7L2308.4,1118.7z"/>
		<path d="M1093,1025c-0.6,0-1.2,0-1.7,0l0.8-2.2L1093,1025z"/>
		
			<linearGradient id="SVGID_8_" gradientUnits="userSpaceOnUse" x1="2009.6003" y1="1739.5499" x2="2307.5" y2="1739.5499" gradientTransform="matrix(1 0 0 -1 0 3000)">
			<stop  offset="0" style="stop-color:#8300AA"/>
			<stop  offset="1" style="stop-color:#0B00FF"/>
		</linearGradient>
		<path class="st11" d="M2307.5,1116.8l-1.9,4.7l-14.4,34.9l-42.2,102.7l0,0l-15.5,37.7l-3.5-7.7l-0.1-0.2c0,0.1,0,0.2,0.1,0.3l0,0
			c-17,99-108.6,175.2-220.4,178.7l42.2-102.7l59.2-144.1l30.9-75.2l11-26.8l7.2-17.4l20-48.7h98.4L2307.5,1116.8z"/>
		<path d="M1010.3,1052.3L1010.3,1052.3C1010.3,1052.3,1010.3,1052.2,1010.3,1052.3L1010.3,1052.3z"/>
		
			<linearGradient id="SVGID_9_" gradientUnits="userSpaceOnUse" x1="2233.5002" y1="1514.4502" x2="2714.0002" y2="1514.4502" gradientTransform="matrix(1 0 0 -1 0 3000)">
			<stop  offset="0" style="stop-color:#8300AA"/>
			<stop  offset="1" style="stop-color:#0B00FF"/>
		</linearGradient>
		<path class="st12" d="M2707.4,1299.2c-6.5,32.4-21.1,62.3-41.7,87.8c-40.7,50.2-105,83.3-177.9,85.5c-2.5,0.1-5.1,0.1-7.7,0.1
			c-3.8,0-7.7-0.1-11.5-0.3l-145.2-320.4l-15-33.1c-0.9,0.9-1.9,1.9-2.8,2.9l-14.4,34.9l-42.2,102.7l0,0l-15.5,37.7l171.2,377.6
			l80.5,177.7l74-180l113-274.9l5-12.2l19.2-46.7l0,0l0,0l17.6-42.8C2711.8,1296.7,2709.5,1297.9,2707.4,1299.2z M2477.3,1497.7
			l1.3-3.3l1.5,3.3C2479.2,1497.7,2478.3,1497.7,2477.3,1497.7z"/>
		
			<linearGradient id="SVGID_10_" gradientUnits="userSpaceOnUse" x1="2487.7002" y1="1737.3" x2="2813.7" y2="1737.3" gradientTransform="matrix(1 0 0 -1 0 3000)">
			<stop  offset="0" style="stop-color:#8300AA"/>
			<stop  offset="1" style="stop-color:#0B00FF"/>
		</linearGradient>
		<path class="st13" d="M2813.7,1053l-99.7,242.4c-2.3,1.2-4.5,2.4-6.7,3.7c-6.5,32.4-21.1,62.3-41.7,87.8
			c-40.7,50.2-105,83.3-177.9,85.5l38.8-94.3l51.8-125.9l44.1-107.2l16-38.9l21.8-53.1H2813.7z"/>
	</g>
	<g id="Layer_2">
		<g id="Layer_3_1_">
			<g id="Layer_4">
			</g>
		</g>
	</g>
</g>
</svg>
